M48
; DRILL file {KiCad (6.0.5)} date Thu Jun 16 01:18:18 2022
; FORMAT={-:-/ absolute / metric / decimal}
; #@! TF.CreationDate,2022-06-16T01:18:18+03:00
; #@! TF.GenerationSoftware,Kicad,Pcbnew,(6.0.5)
; #@! TF.FileFunction,MixedPlating,1,2
FMAT,2
METRIC
; #@! TA.AperFunction,Plated,PTH,ViaDrill
T1C0.400
; #@! TA.AperFunction,Plated,PTH,ComponentDrill
T2C0.500
; #@! TA.AperFunction,Plated,PTH,ComponentDrill
T3C0.950
; #@! TA.AperFunction,Plated,PTH,ComponentDrill
T4C2.300
%
G90
G05
T1
X41.5Y-82.0
X42.5Y-86.0
X43.5Y-82.5
X44.5Y-99.0
X45.5Y-82.0
X46.25Y-86.0
X47.625Y-81.125
X48.0Y-45.0
X48.0Y-86.0
X49.25Y-86.0
X50.0Y-47.0
X50.25Y-93.75
X52.0Y-97.0
X58.5Y-72.25
X59.25Y-80.0
X59.25Y-81.5
X59.25Y-83.0
X59.25Y-85.0
X59.5Y-88.5
X59.5Y-89.75
X59.5Y-91.25
X59.5Y-94.0
X59.75Y-72.25
X61.0Y-94.0
X61.125Y-96.875
X61.25Y-78.25
X62.5Y-78.25
X62.5Y-94.0
X63.75Y-78.25
X64.0Y-94.0
X64.75Y-78.25
X65.5Y-94.0
X65.75Y-78.25
X67.0Y-94.0
X67.75Y-77.0
X68.75Y-78.75
X68.875Y-93.625
X69.25Y-75.25
X69.75Y-78.75
X70.0Y-93.5
X70.25Y-72.0
X70.75Y-78.75
X70.75Y-78.75
X71.25Y-93.5
X71.5Y-49.0
X72.0Y-78.75
X72.5Y-93.5
X73.0Y-50.5
X74.182Y-84.475
X74.488Y-82.512
X74.5Y-81.5
X74.5Y-83.512
X74.75Y-86.75
X74.75Y-88.0
X74.75Y-89.0
X74.75Y-90.0
X74.75Y-91.0
X84.0Y-46.0
T2
X40.0Y-82.0
X40.0Y-83.0
X40.0Y-84.0
X40.0Y-85.0
X40.0Y-86.0
X40.0Y-87.0
X40.0Y-88.0
X40.0Y-89.0
X40.0Y-94.0
X40.0Y-95.0
X40.0Y-96.0
X40.0Y-97.0
X40.0Y-98.0
X40.0Y-99.0
X40.0Y-100.0
X40.0Y-101.0
X93.0Y-83.0
X93.0Y-84.0
X93.0Y-85.0
X93.0Y-86.0
X93.0Y-87.0
X93.0Y-88.0
X93.0Y-89.0
X93.0Y-90.0
X93.0Y-94.0
X93.0Y-95.0
X93.0Y-96.0
X93.0Y-97.0
X93.0Y-98.0
X93.0Y-99.0
X93.0Y-100.0
X93.0Y-101.0
T3
X56.5Y-47.14
X59.0Y-47.14
X61.0Y-47.14
X63.5Y-47.14
T4
X53.43Y-49.85
X66.57Y-49.85
T0
M30
