%TF.GenerationSoftware,KiCad,Pcbnew,(6.0.5)*%
%TF.CreationDate,2022-06-16T01:18:26+03:00*%
%TF.ProjectId,P2_Neata_Adrian+Radulescu,50325f4e-6561-4746-915f-41647269616e,rev?*%
%TF.SameCoordinates,Original*%
%TF.FileFunction,Soldermask,Top*%
%TF.FilePolarity,Negative*%
%FSLAX46Y46*%
G04 Gerber Fmt 4.6, Leading zero omitted, Abs format (unit mm)*
G04 Created by KiCad (PCBNEW (6.0.5)) date 2022-06-16 01:18:26*
%MOMM*%
%LPD*%
G01*
G04 APERTURE LIST*
G04 Aperture macros list*
%AMRoundRect*
0 Rectangle with rounded corners*
0 $1 Rounding radius*
0 $2 $3 $4 $5 $6 $7 $8 $9 X,Y pos of 4 corners*
0 Add a 4 corners polygon primitive as box body*
4,1,4,$2,$3,$4,$5,$6,$7,$8,$9,$2,$3,0*
0 Add four circle primitives for the rounded corners*
1,1,$1+$1,$2,$3*
1,1,$1+$1,$4,$5*
1,1,$1+$1,$6,$7*
1,1,$1+$1,$8,$9*
0 Add four rect primitives between the rounded corners*
20,1,$1+$1,$2,$3,$4,$5,0*
20,1,$1+$1,$4,$5,$6,$7,0*
20,1,$1+$1,$6,$7,$8,$9,0*
20,1,$1+$1,$8,$9,$2,$3,0*%
G04 Aperture macros list end*
%ADD10RoundRect,0.250000X0.475000X-0.250000X0.475000X0.250000X-0.475000X0.250000X-0.475000X-0.250000X0*%
%ADD11RoundRect,0.250000X-0.250000X-0.475000X0.250000X-0.475000X0.250000X0.475000X-0.250000X0.475000X0*%
%ADD12RoundRect,0.250000X-0.425000X0.450000X-0.425000X-0.450000X0.425000X-0.450000X0.425000X0.450000X0*%
%ADD13RoundRect,0.250000X-0.450000X-0.425000X0.450000X-0.425000X0.450000X0.425000X-0.450000X0.425000X0*%
%ADD14RoundRect,0.250000X-0.475000X0.250000X-0.475000X-0.250000X0.475000X-0.250000X0.475000X0.250000X0*%
%ADD15RoundRect,0.243750X0.243750X0.456250X-0.243750X0.456250X-0.243750X-0.456250X0.243750X-0.456250X0*%
%ADD16RoundRect,0.243750X0.456250X-0.243750X0.456250X0.243750X-0.456250X0.243750X-0.456250X-0.243750X0*%
%ADD17O,0.850000X0.850000*%
%ADD18R,0.850000X0.850000*%
%ADD19R,1.600000X1.500000*%
%ADD20C,1.600000*%
%ADD21C,3.000000*%
%ADD22RoundRect,0.250000X0.262500X0.450000X-0.262500X0.450000X-0.262500X-0.450000X0.262500X-0.450000X0*%
%ADD23RoundRect,0.250000X-0.262500X-0.450000X0.262500X-0.450000X0.262500X0.450000X-0.262500X0.450000X0*%
%ADD24RoundRect,0.250000X-0.450000X0.262500X-0.450000X-0.262500X0.450000X-0.262500X0.450000X0.262500X0*%
%ADD25R,2.500000X1.200000*%
%ADD26R,1.200000X2.500000*%
%ADD27R,1.500000X0.550000*%
%ADD28R,0.550000X1.500000*%
%ADD29RoundRect,0.150000X-0.825000X-0.150000X0.825000X-0.150000X0.825000X0.150000X-0.825000X0.150000X0*%
%ADD30R,7.875000X2.000000*%
%ADD31R,2.000000X7.875000*%
G04 APERTURE END LIST*
D10*
%TO.C,C1*%
X54000000Y-100950000D03*
X54000000Y-99050000D03*
%TD*%
D11*
%TO.C,C2*%
X67800000Y-95750000D03*
X69700000Y-95750000D03*
%TD*%
D12*
%TO.C,C3*%
X81250000Y-90800000D03*
X81250000Y-93500000D03*
%TD*%
D11*
%TO.C,C4*%
X76350000Y-87250000D03*
X78250000Y-87250000D03*
%TD*%
D10*
%TO.C,C5*%
X79750000Y-101200000D03*
X79750000Y-99300000D03*
%TD*%
%TO.C,C6*%
X77500000Y-84200000D03*
X77500000Y-82300000D03*
%TD*%
%TO.C,C7*%
X91250000Y-62700000D03*
X91250000Y-60800000D03*
%TD*%
D13*
%TO.C,C8*%
X85650000Y-55000000D03*
X88350000Y-55000000D03*
%TD*%
D14*
%TO.C,C9*%
X91250000Y-74550000D03*
X91250000Y-76450000D03*
%TD*%
D11*
%TO.C,C10*%
X86050000Y-46000000D03*
X87950000Y-46000000D03*
%TD*%
%TO.C,C11*%
X86050000Y-50000000D03*
X87950000Y-50000000D03*
%TD*%
D15*
%TO.C,D1*%
X57187500Y-89000000D03*
X55312500Y-89000000D03*
%TD*%
%TO.C,LED1*%
X43000000Y-108500000D03*
X41125000Y-108500000D03*
%TD*%
%TO.C,LED2*%
X56937500Y-108500000D03*
X55062500Y-108500000D03*
%TD*%
%TO.C,LED3*%
X71100000Y-108500000D03*
X69225000Y-108500000D03*
%TD*%
%TO.C,LED4*%
X84937500Y-108500000D03*
X83062500Y-108500000D03*
%TD*%
D16*
%TO.C,D6*%
X48000000Y-49000000D03*
X48000000Y-47125000D03*
%TD*%
D17*
%TO.C,J1*%
X93000000Y-90000000D03*
X93000000Y-89000000D03*
X93000000Y-88000000D03*
X93000000Y-87000000D03*
X93000000Y-86000000D03*
X93000000Y-85000000D03*
X93000000Y-84000000D03*
D18*
X93000000Y-83000000D03*
%TD*%
%TO.C,J2*%
X93000000Y-101000000D03*
D17*
X93000000Y-100000000D03*
X93000000Y-99000000D03*
X93000000Y-98000000D03*
X93000000Y-97000000D03*
X93000000Y-96000000D03*
X93000000Y-95000000D03*
X93000000Y-94000000D03*
%TD*%
D18*
%TO.C,J3*%
X40000000Y-82000000D03*
D17*
X40000000Y-83000000D03*
X40000000Y-84000000D03*
X40000000Y-85000000D03*
X40000000Y-86000000D03*
X40000000Y-87000000D03*
X40000000Y-88000000D03*
X40000000Y-89000000D03*
%TD*%
D18*
%TO.C,J4*%
X40000000Y-94000000D03*
D17*
X40000000Y-95000000D03*
X40000000Y-96000000D03*
X40000000Y-97000000D03*
X40000000Y-98000000D03*
X40000000Y-99000000D03*
X40000000Y-100000000D03*
X40000000Y-101000000D03*
%TD*%
D19*
%TO.C,USB*%
X56500000Y-47140000D03*
D20*
X59000000Y-47140000D03*
X61000000Y-47140000D03*
X63500000Y-47140000D03*
D21*
X53430000Y-49850000D03*
X66570000Y-49850000D03*
%TD*%
D22*
%TO.C,R1*%
X78212500Y-91250000D03*
X76387500Y-91250000D03*
%TD*%
%TO.C,R2*%
X57162500Y-92250000D03*
X55337500Y-92250000D03*
%TD*%
D23*
%TO.C,R3*%
X47087500Y-108500000D03*
X48912500Y-108500000D03*
%TD*%
%TO.C,R4*%
X61237500Y-108500000D03*
X63062500Y-108500000D03*
%TD*%
%TO.C,R5*%
X75087500Y-108500000D03*
X76912500Y-108500000D03*
%TD*%
%TO.C,R6*%
X90087500Y-108500000D03*
X91912500Y-108500000D03*
%TD*%
D24*
%TO.C,R7*%
X48000000Y-54087500D03*
X48000000Y-55912500D03*
%TD*%
D25*
%TO.C,SW1*%
X76750000Y-65690000D03*
X64250000Y-65690000D03*
X76750000Y-73310000D03*
X64250000Y-73310000D03*
%TD*%
%TO.C,SW2*%
X43000000Y-73310000D03*
X55500000Y-73310000D03*
X43000000Y-65690000D03*
X55500000Y-65690000D03*
%TD*%
D26*
%TO.C,SW3*%
X41190000Y-113750000D03*
X41190000Y-126250000D03*
X48810000Y-113750000D03*
X48810000Y-126250000D03*
%TD*%
%TO.C,SW4*%
X55190000Y-113750000D03*
X55190000Y-126250000D03*
X62810000Y-113750000D03*
X62810000Y-126250000D03*
%TD*%
%TO.C,SW5*%
X69190000Y-113750000D03*
X69190000Y-126250000D03*
X76810000Y-113750000D03*
X76810000Y-126250000D03*
%TD*%
%TO.C,SW6*%
X83190000Y-113750000D03*
X83190000Y-126250000D03*
X90810000Y-113750000D03*
X90810000Y-126250000D03*
%TD*%
D27*
%TO.C,ATMEGA164A*%
X61300000Y-82000000D03*
X61300000Y-82800000D03*
X61300000Y-83600000D03*
X61300000Y-84400000D03*
X61300000Y-85200000D03*
X61300000Y-86000000D03*
X61300000Y-86800000D03*
X61300000Y-87600000D03*
X61300000Y-88400000D03*
X61300000Y-89200000D03*
X61300000Y-90000000D03*
D28*
X63000000Y-91700000D03*
X63800000Y-91700000D03*
X64600000Y-91700000D03*
X65400000Y-91700000D03*
X66200000Y-91700000D03*
X67000000Y-91700000D03*
X67800000Y-91700000D03*
X68600000Y-91700000D03*
X69400000Y-91700000D03*
X70200000Y-91700000D03*
X71000000Y-91700000D03*
D27*
X72700000Y-90000000D03*
X72700000Y-89200000D03*
X72700000Y-88400000D03*
X72700000Y-87600000D03*
X72700000Y-86800000D03*
X72700000Y-86000000D03*
X72700000Y-85200000D03*
X72700000Y-84400000D03*
X72700000Y-83600000D03*
X72700000Y-82800000D03*
X72700000Y-82000000D03*
D28*
X71000000Y-80300000D03*
X70200000Y-80300000D03*
X69400000Y-80300000D03*
X68600000Y-80300000D03*
X67800000Y-80300000D03*
X67000000Y-80300000D03*
X66200000Y-80300000D03*
X65400000Y-80300000D03*
X64600000Y-80300000D03*
X63800000Y-80300000D03*
X63000000Y-80300000D03*
%TD*%
D29*
%TO.C,CH340G*%
X76525000Y-47555000D03*
X76525000Y-48825000D03*
X76525000Y-50095000D03*
X76525000Y-51365000D03*
X76525000Y-52635000D03*
X76525000Y-53905000D03*
X76525000Y-55175000D03*
X76525000Y-56445000D03*
X81475000Y-56445000D03*
X81475000Y-55175000D03*
X81475000Y-53905000D03*
X81475000Y-52635000D03*
X81475000Y-51365000D03*
X81475000Y-50095000D03*
X81475000Y-48825000D03*
X81475000Y-47555000D03*
%TD*%
D30*
%TO.C,Y1*%
X60750000Y-101000000D03*
X72625000Y-101000000D03*
%TD*%
D31*
%TO.C,Y2*%
X86250000Y-62562500D03*
X86250000Y-74437500D03*
%TD*%
M02*
